<?xml version="1.0" standalone="no"?>
<!DOCTYPE svg PUBLIC "-//W3C//DTD SVG 20010904//EN"
 "http://www.w3.org/TR/2001/REC-SVG-20010904/DTD/svg10.dtd">
<svg version="1.0" xmlns="http://www.w3.org/2000/svg"
 width="700.000000pt" height="700.000000pt" viewBox="0 0 700.000000 700.000000"
 preserveAspectRatio="xMidYMid meet">
<metadata>
Created by potrace 1.14, written by Peter Selinger 2001-2017
</metadata>
<g transform="translate(0.000000,700.000000) scale(0.100000,-0.100000)"
fill="#000000" stroke="none">
<path d="M3238 6675 c-2 -1 -41 -5 -88 -9 -47 -3 -98 -8 -115 -11 -16 -3 -57
-10 -90 -16 -33 -6 -71 -13 -85 -15 -14 -3 -41 -9 -60 -14 -19 -5 -48 -11 -65
-14 -60 -11 -312 -88 -415 -128 -363 -141 -677 -333 -991 -605 l-96 -83 1
-1467 1 -1468 1252 -1 c689 0 1255 -3 1259 -6 5 -5 5 -242 0 -383 l-1 -40
-1468 0 c-808 0 -1473 2 -1477 5 -5 3 -11 631 -15 1395 -3 764 -8 1391 -9
1392 -1 2 -9 -9 -16 -25 -8 -15 -19 -34 -26 -42 -36 -46 -179 -332 -221 -440
-70 -182 -148 -438 -168 -551 -3 -16 -12 -60 -19 -97 -8 -37 -17 -98 -21 -137
-3 -38 -8 -95 -11 -125 -9 -92 -11 -480 -3 -565 10 -117 23 -218 34 -275 3
-14 7 -36 10 -50 3 -14 7 -36 10 -50 3 -14 7 -36 10 -49 46 -244 188 -608 344
-886 26 -45 191 -297 201 -305 3 -3 21 -25 40 -50 54 -69 62 -79 110 -134 100
-113 221 -234 335 -333 169 -147 158 -138 290 -228 157 -106 280 -175 455
-254 163 -75 230 -101 355 -141 100 -31 319 -86 385 -96 19 -3 42 -7 51 -10 9
-2 32 -7 50 -9 19 -2 57 -9 84 -15 51 -10 721 -8 822 3 222 24 530 108 826
226 107 43 225 101 207 102 -8 0 -24 2 -35 5 -11 2 -33 6 -50 8 -167 27 -495
106 -650 158 -214 71 -530 214 -542 244 -4 12 12 89 62 294 11 44 34 122 37
125 4 4 45 -16 184 -91 182 -99 366 -174 574 -233 104 -30 314 -75 401 -85
174 -22 259 -28 447 -30 l180 -2 114 111 c135 132 260 269 349 385 60 77 229
323 229 333 0 2 20 39 45 83 25 43 45 85 45 92 0 26 -73 117 -131 164 -156
123 -435 222 -1064 374 -211 51 -430 112 -480 133 -11 5 -60 25 -110 46 -116
48 -243 115 -325 173 -94 67 -208 187 -263 280 -48 79 -100 213 -111 282 -3
19 -8 53 -12 75 -20 113 0 328 43 455 121 361 448 632 923 764 121 33 262 48
470 49 144 0 364 -9 408 -18 10 -2 43 -6 73 -10 159 -19 384 -77 568 -146 57
-21 112 -39 122 -39 17 0 17 3 5 38 -45 125 -242 482 -354 642 -64 91 -188
247 -237 298 l-41 44 -40 -59 c-22 -32 -125 -194 -228 -360 l-189 -303 -36 -1
c-20 -1 -54 -3 -76 -5 l-40 -3 -76 122 c-42 67 -163 262 -269 432 -106 171
-200 322 -209 337 -9 15 -55 91 -103 168 -49 77 -88 142 -88 143 0 2 92 3 205
3 l204 -1 89 -131 c175 -258 310 -444 322 -444 8 0 218 297 239 338 15 29 10
35 -73 101 -394 310 -894 530 -1426 627 -181 33 -219 36 -497 39 -139 1 -254
1 -255 0z"/>
<path d="M5080 4440 c-220 -28 -381 -82 -525 -175 -379 -245 -417 -727 -74
-961 121 -83 321 -168 540 -229 71 -20 484 -123 639 -160 238 -55 576 -195
760 -315 35 -22 68 -39 73 -37 6 2 16 23 24 48 14 45 82 344 89 389 2 14 6 45
10 70 10 75 13 729 3 820 -5 47 -14 109 -20 137 l-10 53 -107 57 c-291 156
-587 252 -892 289 -25 3 -61 8 -80 10 -60 8 -372 11 -430 4z"/>
</g>
</svg>
