<?xml version="1.0" standalone="no"?>
<!DOCTYPE svg PUBLIC "-//W3C//DTD SVG 20010904//EN"
 "http://www.w3.org/TR/2001/REC-SVG-20010904/DTD/svg10.dtd">
<svg version="1.0" xmlns="http://www.w3.org/2000/svg"
 width="500.000000pt" height="500.000000pt" viewBox="0 0 500.000000 500.000000"
 preserveAspectRatio="xMidYMid meet">
<metadata>
Created by potrace 1.14, written by Peter Selinger 2001-2017
</metadata>
<g transform="translate(0.000000,500.000000) scale(0.100000,-0.100000)"
fill="#000000" stroke="none">
<path d="M2300 4764 c-19 -2 -73 -9 -120 -15 -222 -27 -503 -111 -715 -214
-197 -95 -411 -242 -552 -379 l-53 -50 0 -1098 0 -1098 920 0 920 0 0 -95 0
-95 -1020 0 -1020 0 0 1083 0 1082 -21 -25 c-107 -134 -259 -412 -333 -611
-41 -113 -88 -293 -113 -434 -25 -146 -25 -557 0 -710 50 -301 163 -610 314
-855 253 -410 645 -747 1078 -924 324 -132 606 -183 960 -173 361 10 632 76
955 235 116 57 131 66 105 69 -257 30 -587 122 -802 223 l-101 48 19 78 c11
44 22 85 24 92 3 9 30 -1 87 -32 252 -135 611 -231 910 -243 l137 -6 70 57
c231 189 460 475 591 741 l53 106 -39 39 c-21 22 -75 60 -119 85 -146 83 -297
132 -648 210 -433 96 -649 189 -802 341 -119 119 -171 266 -163 467 5 132 27
206 93 312 114 184 310 317 563 381 330 84 788 36 1164 -121 14 -5 10 10 -18
81 -102 253 -242 479 -422 682 l-64 72 -152 -245 c-116 -189 -156 -245 -171
-244 -15 0 -71 83 -244 362 -124 199 -226 368 -229 375 -3 9 15 12 67 12 l70
0 167 -241 c91 -132 170 -237 174 -232 4 4 55 76 113 159 l105 152 -46 38
c-355 297 -720 464 -1182 539 -91 15 -437 28 -510 19z"/>
<path d="M3665 3210 c-407 -52 -663 -292 -642 -604 14 -230 159 -372 492 -481
61 -20 232 -66 380 -101 149 -35 313 -78 365 -95 107 -34 296 -121 365 -169
l45 -31 11 28 c21 55 68 260 84 363 35 238 29 533 -15 765 -14 71 -25 105 -39
116 -35 28 -268 119 -385 150 -198 51 -503 79 -661 59z"/>
</g>
</svg>
