<?xml version="1.0" encoding="UTF-8" standalone="no"?>
<!-- Created with Inkscape (http://www.inkscape.org/) -->

<svg
   version="1.1"
   id="svg1"
   width="666.66669"
   height="666.66669"
   viewBox="0 0 666.66669 666.66669"
   sodipodi:docname="lenka-logo-sede.svg"
   inkscape:version="1.3.1 (91b66b0783, 2023-11-16)"
   xmlns:inkscape="http://www.inkscape.org/namespaces/inkscape"
   xmlns:sodipodi="http://sodipodi.sourceforge.net/DTD/sodipodi-0.dtd"
   xmlns="http://www.w3.org/2000/svg"
   xmlns:svg="http://www.w3.org/2000/svg">
  <defs
     id="defs1">
    <inkscape:path-effect
       effect="fill_between_many"
       method="originald"
       linkedpaths="#path1,0,1|"
       id="path-effect1" />
  </defs>
  <sodipodi:namedview
     id="namedview1"
     pagecolor="#ffffff"
     bordercolor="#000000"
     borderopacity="0.25"
     inkscape:showpageshadow="2"
     inkscape:pageopacity="0.0"
     inkscape:pagecheckerboard="0"
     inkscape:deskcolor="#d1d1d1"
     inkscape:zoom="0.77849998"
     inkscape:cx="332.69108"
     inkscape:cy="347.46308"
     inkscape:window-width="1366"
     inkscape:window-height="715"
     inkscape:window-x="-8"
     inkscape:window-y="-8"
     inkscape:window-maximized="1"
     inkscape:current-layer="g1" />
  <g
     inkscape:groupmode="layer"
     inkscape:label="Image"
     id="g1">
    <path
       inkscape:original-d="M 0,0"
       inkscape:path-effect="#path-effect1"
       d="m 334.9082,13.675781 c -75.78502,0.0059 -152.83946,29.59448 -206.5332,79.306641 l -9.66016,8.941408 V 248.4668 395.00781 h 122.66797 122.66602 v 12.66797 12.66602 H 228.05469 92.060547 L 91.720703,276.00781 91.382812,131.67578 81.070312,146.3418 c -13.441296,19.1192 -31.229451,54.81593 -38.933593,78.13086 -11.930338,36.10454 -16.085474,65.52581 -15.046875,106.5332 0.736909,29.09559 2.515563,42.64824 8.935547,68.0625 21.635248,85.64561 82.838909,160.9101 162.023439,199.24805 31.87184,15.43104 68.31082,26.25097 100.66601,29.88867 16.57582,1.86362 56.86436,1.62443 73.38477,-0.43555 36.50265,-4.55161 69.93211,-14.85164 102.96289,-31.72461 12.0553,-6.15814 13.18442,-7.02421 9.65234,-7.39648 -11.03139,-1.16266 -36.59561,-6.24351 -52.39062,-10.41211 -23.09924,-6.09634 -37.83744,-11.31721 -54.48438,-19.30274 l -13.54296,-6.49609 2.5957,-10.38086 c 1.42784,-5.70952 2.85829,-11.14218 3.17773,-12.07226 0.40453,-1.17786 3.92902,0.0989 11.61328,4.20703 32.59468,17.42541 75.26456,29.08398 120.19922,32.84375 l 17.16797,1.4375 4.83203,-3.35157 c 8.70299,-6.03521 28.56043,-24.43103 38.55469,-35.71679 19.90461,-22.47675 38.44921,-49.84577 49.4043,-72.91407 l 4.71093,-9.91992 -6.79492,-6.25 c -3.73783,-3.43694 -12.10177,-8.97107 -18.58593,-12.29883 -20.1642,-10.3485 -36.85522,-15.55184 -82.45704,-25.70703 -66.6969,-14.85291 -99.15109,-31.03695 -116.70312,-58.19336 -8.79313,-13.60467 -11.30137,-23.79818 -11.26367,-45.77929 0.0372,-21.65994 2.09319,-29.44478 11.97461,-45.33399 27.68384,-44.51523 87.83962,-64.1927 162.66015,-53.20898 22.61222,3.31948 43.53094,8.82662 60.95899,16.04883 4.19456,1.73822 7.88677,3.16015 8.20508,3.16015 0.76262,0 -2.98784,-9.75997 -9.59376,-24.96679 -10.60349,-24.40928 -33.24771,-58.81686 -51.79492,-78.70118 l -7.77539,-8.33593 -20,32.66601 c -16.17744,26.42276 -20.50815,32.60297 -22.65234,32.33594 -1.91126,-0.23803 -11.10993,-13.90929 -32.97461,-48.99805 -16.67896,-26.76664 -30.33651,-49.116014 -30.34961,-49.666013 -0.0131,-0.55 4.12373,-1 9.19336,-1 h 9.2168 l 20.92773,30.333983 c 11.50939,16.68332 21.63616,31.08724 22.50586,32.00977 1.24357,1.31911 4.74527,-2.81041 16.39258,-19.33399 l 14.81054,-21.009763 -4.86914,-4.322266 C 528.67161,82.107769 508.03095,66.81615 496.44922,59.544922 450.71457,30.831825 390.27957,13.671481 334.9082,13.675781 Z"
       id="path2"
       style="fill:#434343" />
    <path
       id="path1"
       style="fill:#434343"
       d="M 334.9082 13.675781 C 259.12318 13.681731 182.06874 43.270261 128.375 92.982422 L 118.71484 101.92383 L 118.71484 248.4668 L 118.71484 395.00781 L 241.38281 395.00781 L 364.04883 395.00781 L 364.04883 407.67578 L 364.04883 420.3418 L 228.05469 420.3418 L 92.060547 420.3418 L 91.720703 276.00781 L 91.382812 131.67578 L 81.070312 146.3418 C 67.629016 165.461 49.840861 201.15773 42.136719 224.47266 C 30.206381 260.5772 26.051245 289.99847 27.089844 331.00586 C 27.826753 360.10145 29.605407 373.6541 36.025391 399.06836 C 57.660639 484.71397 118.8643 559.97846 198.04883 598.31641 C 229.92067 613.74745 266.35965 624.56738 298.71484 628.20508 C 315.29066 630.0687 355.5792 629.82951 372.09961 627.76953 C 408.60226 623.21792 442.03172 612.91789 475.0625 596.04492 C 487.1178 589.88678 488.24692 589.02071 484.71484 588.64844 C 473.68345 587.48578 448.11923 582.40493 432.32422 578.23633 C 409.22498 572.13999 394.48678 566.91912 377.83984 558.93359 L 364.29688 552.4375 L 366.89258 542.05664 C 368.32042 536.34712 369.75087 530.91446 370.07031 529.98438 C 370.47484 528.80652 373.99933 530.08332 381.68359 534.19141 C 414.27827 551.61682 456.94815 563.27539 501.88281 567.03516 L 519.05078 568.47266 L 523.88281 565.12109 C 532.5858 559.08588 552.44324 540.69006 562.4375 529.4043 C 582.34211 506.92755 600.88671 479.55853 611.8418 456.49023 L 616.55273 446.57031 L 609.75781 440.32031 C 606.01998 436.88337 597.65604 431.34924 591.17188 428.02148 C 571.00768 417.67298 554.31666 412.46964 508.71484 402.31445 C 442.01794 387.46154 409.56375 371.2775 392.01172 344.12109 C 383.21859 330.51642 380.71035 320.32291 380.74805 298.3418 C 380.78522 276.68186 382.84124 268.89702 392.72266 253.00781 C 420.4065 208.49258 480.56228 188.81511 555.38281 199.79883 C 577.99503 203.11831 598.91375 208.62545 616.3418 215.84766 C 620.53636 217.58588 624.22857 219.00781 624.54688 219.00781 C 625.3095 219.00781 621.55904 209.24784 614.95312 194.04102 C 604.34963 169.63174 581.70541 135.22416 563.1582 115.33984 L 555.38281 107.00391 L 535.38281 139.66992 C 519.20537 166.09268 514.87466 172.27289 512.73047 172.00586 C 510.81921 171.76783 501.62054 158.09657 479.75586 123.00781 C 463.0769 96.24117 449.41935 73.891796 449.40625 73.341797 C 449.39319 72.791797 453.52998 72.341797 458.59961 72.341797 L 467.81641 72.341797 L 488.74414 102.67578 C 500.25353 119.3591 510.3803 133.76302 511.25 134.68555 C 512.49357 136.00466 515.99527 131.87514 527.64258 115.35156 L 542.45312 94.341797 L 537.58398 90.019531 C 528.67161 82.107769 508.03095 66.81615 496.44922 59.544922 C 450.71457 30.831825 390.27957 13.671481 334.9082 13.675781 z M 510.38086 221.19141 C 497.88615 221.3947 486.34213 222.36135 479.08203 224.03711 C 455.88756 229.3908 440.61029 237.26574 426.76367 251.00781 C 412.12573 265.53526 405.76322 282.09678 407.06445 302.28906 C 409.57784 341.29134 436.89445 359.85677 520.04883 379.08203 C 553.95038 386.92006 568.9392 391.05592 583.30664 396.53516 C 596.25075 401.47157 615.09962 410.91059 621.3125 415.56836 C 623.84072 417.46376 626.31614 418.5635 626.81445 418.01172 C 629.44788 415.09569 635.72982 389.66217 639.57617 366.3418 C 644.3072 337.65774 642.43006 283.2449 635.78906 256.58789 C 634.04369 249.58195 632.8716 248.7755 611.88867 240.11523 C 593.03035 232.33185 566.81802 225.3464 547.38281 222.92578 C 536.32147 221.54811 522.87557 220.98812 510.38086 221.19141 z " />
  </g>
</svg>
